<svg width="123" height="62" viewBox="0 0 123 62" fill="none" xmlns="http://www.w3.org/2000/svg">
<path d="M116.373 58.85C117.828 58.85 119.015 57.6659 119.015 56.2028V6.64719C119.015 5.18412 117.828 4 116.373 4H6.65373C5.19613 4 4.00928 5.18412 4.00928 6.64719V56.2028C4.00928 57.6659 5.19613 58.85 6.65373 58.85H116.373Z" fill="#E13B26" stroke="white" stroke-width="6.12906"/>
<path d="M116.373 58.85C117.828 58.85 119.015 57.6659 119.015 56.2028V6.64719C119.015 5.18412 117.828 4 116.373 4H6.65373C5.19613 4 4.00928 5.18412 4.00928 6.64719V56.2028C4.00928 57.6659 5.19613 58.85 6.65373 58.85H116.373Z" fill="#E13B26"/>
<path d="M119.014 6.64719C119.014 5.18412 117.827 4 116.372 4H6.6472C5.18687 4 4 5.18412 4 6.64719V52.3769H119.014V6.64719Z" fill="black"/>
<path d="M104.848 42.3815H94.765L91.5517 24.1246L91.4997 23.9851L88.1552 42.3815H78.5208C75.5865 32.408 71.2383 13.0901 71.2383 13.0901H80.416L83.4761 30.1L83.7742 30.0836L87.1625 13.0901H95.435L99.0502 30.141L99.2964 30.1355L102.425 13.0901H111.892L104.848 42.3815Z" fill="white"/>
<path d="M54.5399 30.4611C53.3038 31.1038 50.9739 31.771 51.0586 33.9889C51.127 35.6379 52.1936 36.7673 53.632 36.7673C56.4624 36.7673 57.6493 35.8758 58.6666 34.9405L54.5399 30.4611ZM63.8516 39.6935C59.9382 42.5868 56.0249 43.5166 52.5627 43.5166C46.5163 43.5166 42.5811 40.4619 42.5811 33.9971C42.5811 30.6881 45.4826 27.3408 49.0705 25.5003C47.6703 23.9798 46.3714 21.9726 46.3303 19.8559C46.2264 14.433 51.7997 12.144 56.2929 12.144C61.9236 12.144 66.8489 14.5998 66.8489 19.979C66.8489 23.4083 65.0439 26.1239 62.1643 27.6471C62.1643 27.6471 64.1114 30.3763 64.9865 30.3462C65.2517 30.3353 66.321 28.7574 66.3949 28.3034H74.3666C73.5571 30.8713 71.249 33.0399 69.8351 35.2003L75.7011 42.3653H65.2983L63.8516 39.6935ZM56.1315 23.0665C58.9701 23.4821 59.796 19.9215 59.7851 19.8094C59.4597 16.9872 57.8161 17.0993 56.6347 17.0993C54.7751 17.0993 53.9684 18.3354 53.9684 19.5277C53.9684 20.422 54.6001 22.3746 56.1315 23.0665Z" fill="white"/>
<path d="M23.3286 24.2014H28.3714C30.2611 24.2014 31.9457 23.6681 31.9457 21.7729C31.9457 20.4521 30.7944 20.0008 29.5966 20.0008H23.3286V24.2014ZM23.3286 35.3972H28.9074C30.7999 35.3972 32.8181 34.8339 33.1818 32.5996C33.4279 31.0737 31.169 29.5204 30.1189 29.5504L23.3286 29.5751V35.3972ZM14.1865 13.1449L31.6121 13C38.5199 13 40.0322 16.2051 40.4069 20.1157C40.519 21.2479 39.6166 25.1339 37.1116 26.0992C38.4543 27.0318 42.0395 29.9306 41.9875 33.4638C41.9328 37.4018 38.8289 42.3953 34.8253 42.3953H14.1865V13.1449Z" fill="white"/>
</svg>
