<svg width="1280" height="720" viewBox="0 0 1280 720" fill="none" xmlns="http://www.w3.org/2000/svg" xmlns:xlink="http://www.w3.org/1999/xlink">
<style>.Rectangle_1_353 {
	animation: 1s linear 0s 1 normal forwards running Rectangle_1_353;
		width: 1px;
		opacity: 0;
}
@keyframes Rectangle_1_353 {
	0% {
		width: 1px;
		opacity: 0;
	}
	30% {
		width: 1px;
	}
	40% {
		opacity: 1;
	}
	60% {
		width: 796px;
	}
	100% {
		width: 796px;
		opacity: 1;
	}
}.Rectangle_10_161 {
	animation: 1s linear 0s 1 normal forwards running Rectangle_10_161;
		width: 1px;
		opacity: 0;
}
@keyframes Rectangle_10_161 {
	0% {
		width: 1px;
		opacity: 0;
	}
	40% {
		width: 1px;
		opacity: 1;
	}
	70% {
		width: 480px;
	}
	100% {
		width: 480px;
		opacity: 1;
	}
}.Group_1_681 {
	animation: 1s linear 0s 1 normal forwards running Group_1_681;
		opacity: 0;
}
@keyframes Group_1_681 {
	0% {
		opacity: 0;
	}
	40% {
		opacity: 1;
	}
	100% {
		opacity: 1;
	}
}
</style>
<g clip-path="url(#clip_0_326)" width="1280" height="720" data-name="Logo">
	<rect width="796" height="30" fill="white" data-name="Rectangle 1" class="Rectangle_1_353" transform="translate(321.5 227.5)"/>
	<rect width="320.333" height="30" fill="white" data-name="Rectangle 10" class="Rectangle_10_161" transform="translate(637.5 462.5)"/>
	<g transform="translate(162 227.5)" class="Group_1_681" width="956" height="265" data-name="Group 1">
		<rect width="160" height="30" fill="white" data-name="Rectangle 1"/>
		<rect width="110" height="30" fill="white" data-name="Rectangle 9" transform="translate(336 45)"/>
		<path d="M20.6823 -3.50666e-07C26.7511 -8.53903e-08 32.6772 1.84059 37.6782 5.27874L190 110H220V140H199.318C193.249 140 187.323 138.159 182.322 134.721L30 30L-1.31134e-06 30L0 -1.25472e-06L20.6823 -3.50666e-07Z" fill="white" data-name="Rectangle 21" transform="translate(336 265) rotate(-90)"/>
		<rect width="130" height="30" fill="white" data-name="Rectangle 11" transform="translate(506 117)"/>
		<rect width="100" height="30" fill="white" data-name="Rectangle 15" transform="translate(666 117)"/>
		<rect width="130" height="30" fill="white" data-name="Rectangle 16" transform="translate(666 45)"/>
		<rect width="130" height="30" fill="white" data-name="Rectangle 17" transform="translate(666 190)"/>
		<rect width="130" height="30" fill="white" data-name="Rectangle 22" transform="translate(826 190)"/>
		<rect width="30" height="175" fill="white" data-name="Rectangle 12" transform="translate(506 45)"/>
		<rect width="30" height="175" fill="white" data-name="Rectangle 13" transform="translate(606 45)"/>
		<rect width="30" height="175" fill="white" data-name="Rectangle 14" transform="translate(666 45)"/>
		<rect width="30" height="175" fill="white" data-name="Rectangle 23" transform="translate(826 45)"/>
		<rect width="110" height="30" fill="white" data-name="Rectangle 10" transform="translate(366 235)"/>
		<rect width="190" height="30" fill="white" data-name="Rectangle 2" transform="translate(95 30) rotate(90)"/>
		<path d="M88.915 22.3835C91.187 27.0429 91.2765 32.4697 89.1593 37.2014L34.1175 160.211C30.0916 169.208 21.1548 175 11.2978 175H0L78 0L88.915 22.3835Z" fill="white" data-name="Vector" transform="translate(125 45)"/>
		<path d="M92.085 22.3835C89.813 27.0428 89.7235 32.4697 91.8407 37.2014L146.882 160.211C150.908 169.208 159.845 175 169.702 175H181L103 1.26763e-06L92.085 22.3835Z" fill="white" data-name="Vector" transform="translate(125 45)"/>
		<path d="M78 0L103 1.26763e-06L103 30H78V0Z" fill="white" data-name="Vector" transform="translate(125 45)"/>
		<path d="M36.5 109.5H143.5V139.5H36.5V109.5Z" fill="white" data-name="Vector" transform="translate(125 45)"/>
	</g>
</g>
<defs><clipPath id="clip_0_326"><rect width="1280" height="720"/></clipPath>
</defs>
</svg>